<?xml version="1.0" encoding="utf-8"?>
<?xml-stylesheet type="text/xsl" href="rss1.xsl"?>
<rss version="2.0" xmlns:atom="http://www.w3.org/2005/Atom" xmlns:content="http://purl.org/rss/1.0/modules/content/" xmlns:dc="http://purl.org/dc/elements/1.1/" xmlns:media="http://search.yahoo.com/mrss/">
<channel>
 <title>Getty</title>
 <link>http://www.gettyimg.com/</link>
 <atom:link href="http://www.gettyimg.com/" rel="self" type="application/rss+xml" />

 
                <item>
                <title><![CDATA[【Requests】[REQ AUD] - Amaarae - Angels In Tibet (Remix Pack)]]></title>
                <link><![CDATA[https://sharemania.us/threads/amaarae-angels-in-tibet-remix-pack.241911/]]></link>
                <description><![CDATA[<article>
<blockquote class="messageText SelectQuoteContainer ugc baseHtml">
Can someone post the files on here? Thanks
<div class="messageTextEndMarker">&nbsp;</div>
</blockquote>
</article>]]></description>
                <author><![CDATA[whoknewcxh]]></author>
                </item>

                
                <item>
                <title><![CDATA[【Apple Music】WEB-RiP - Akon - Lonely [Apple HD Music Video]]]></title>
                <link><![CDATA[https://sharemania.us/threads/akon-lonely-apple-hd-music-video.241909/]]></link>
                <description><![CDATA[<article>
<blockquote class="messageText SelectQuoteContainer ugc baseHtml">
<span style="font-size: 22px"><b>Akon - Lonely [Apple HD Music Video]</b></span><br>
<br>
<img src="https://imgur.com/POgbaqx.jpg" class="bbCodeImage LbImage" alt="[​IMG]" data-url="https://imgur.com/POgbaqx.jpg" style=""><br>
<br>
<div class="bbCodeBlock bbCodeCode">
<div class="type">Code:</div>
<pre>General
Format                         : MPEG-4
Codec ID                       : M4V  (isom/M4V /mp42)
File size                      : 212 MiB
Duration                       : 4 min 23 s
Overall bit rate mode          : Variable
Overall bit rate               : 6 770 kb/s
Movie name                     : Lonely
Performer                      : Akon
Genre                          : Hip-Hop/Rap
ContentType                    : Music Video
Recorded date                  : UTC 2005-01-01 08:00:00
Encoded date                   : UTC 2024-03-21 20:59:04
Tagged date                    : UTC 2024-03-21 20:59:04
Copyright                      : ℗ 2005 SRC Records, Inc., Universal Records, A Division Of UMG Recordings, Inc.
Cover                          : Yes
Rating                         : Clean
GenreID                        : 1618
AppleStoreCountry              : Canada
AlbumTitleID                   : 3261325
AppleStoreCatalogID            : 1445833602

Video
ID                             : 2
Format                         : AVC
Format/Info                    : Advanced Video Codec
Format profile                 : High@L4
Format settings                : CABAC / 5 Ref Frames
Format settings, CABAC         : Yes
Format settings, Reference fra : 5 frames
Codec ID                       : avc1
Codec ID/Info                  : Advanced Video Coding
Duration                       : 4 min 23 s
Source duration                : 4 min 23 s
Bit rate                       : 6 232 kb/s
Maximum bit rate               : 13.0 Mb/s
Width                          : 1 440 pixels
Height                         : 1 080 pixels
Display aspect ratio           : 4:3
Frame rate mode                : Constant
Frame rate                     : 23.976 (24000/1001) FPS
Color space                    : YUV
Chroma subsampling             : 4:2:0
Bit depth                      : 8 bits
Scan type                      : Progressive
Bits/(Pixel*Frame)             : 0.167
Stream size                    : 196 MiB (92%)
Source stream size             : 204 MiB (96%)
Title                          : Core Media Video
Language                       : English
Encoded date                   : UTC 2024-03-06 15:47:26
Tagged date                    : UTC 2024-03-21 20:59:09
Color range                    : Limited
Color primaries                : BT.709
Transfer characteristics       : BT.709
Matrix coefficients            : BT.709
mdhd_Duration                  : 263138
Codec configuration box        : avcC

Audio
ID                             : 1
Format                         : AAC LC
Format/Info                    : Advanced Audio Codec Low Complexity
Codec ID                       : mp4a-40-2
Duration                       : 4 min 23 s
Duration_LastFrame             : -20 ms
Bit rate mode                  : Variable
Bit rate                       : 258 kb/s
Maximum bit rate               : 347 kb/s
Channel(s)                     : 2 channels
Channel layout                 : L R
Sampling rate                  : 48.0 kHz
Frame rate                     : 46.875 FPS (1024 SPF)
Compression mode               : Lossy
Stream size                    : 8.10 MiB (4%)
Title                          : Core Media Audio
Encoded date                   : UTC 2024-03-06 15:47:03
Tagged date                    : UTC 2024-03-21 20:59:09

Text
ID                             : 3
Format                         : EIA-608
Codec ID                       : c608
Duration                       : 4 min 19 s
Bit rate mode                  : Variable
Bit rate                       : 198 b/s
Maximum bit rate               : 1 104 b/s
Frame rate                     : 0.558 FPS
Stream size                    : 6.27 KiB (0%)
Title                          : Core Media Closed Caption
Language                       : English
Forced                         : No
Encoded date                   : UTC 2024-03-06 15:47:26
Tagged date                    : UTC 2024-03-21 20:59:09
</pre>
</div>
<div class="bbCodeBlock bbCodeVfcHH HiddenContent">
<div class="attribution type">Hidden Content:</div>
<blockquote>You must reply before you can see the hidden data contained here.</blockquote>
</div>
<div class="messageTextEndMarker">&nbsp;</div>
</blockquote>
</article>]]></description>
                <author><![CDATA[abby0511]]></author>
                </item>

                
                <item>
                <title><![CDATA[【PRORES HD】Rosalía &amp; Rauw Alejandro Vampiros MASTER ProResHQ 1080p PCM2.0]]></title>
                <link><![CDATA[https://sharemania.us/threads/rosal%C3%ADa-rauw-alejandro-vampiros-master-proreshq-1080p-pcm2-0.241908/]]></link>
                <description><![CDATA[<article>
<blockquote class="messageText SelectQuoteContainer ugc baseHtml">
Thanks<img src="styles/default/xenforo/smilies/secret_smile-48.png" class="mceSmilie" alt=":cool:" title="Cool    :cool:">
<div class="messageTextEndMarker">&nbsp;</div>
</blockquote>
</article>]]></description>
                <author><![CDATA[von_3649]]></author>
                </item>

                
                <item>
                <title><![CDATA[【HD Live Performances】WEB-DL - Benson Boone - Beautiful Things 'The Tonight Show Starring Jimmy Fallon' 1080 NBC WEB-DL AAC 2.0 H.264-fstambuk]]></title>
                <link><![CDATA[https://sharemania.us/threads/benson-boone-beautiful-things-the-tonight-show-starring-jimmy-fallon-1080-nbc-web-dl-aac-2-0-h-264-fstambuk.241910/]]></link>
                <description><![CDATA[<article>
<blockquote class="messageText SelectQuoteContainer ugc baseHtml">
<div style="text-align: center"><img src="https://i.imgur.com/2Ha1735.jpeg" class="bbCodeImage LbImage" alt="[​IMG]" data-url="https://i.imgur.com/2Ha1735.jpeg" style=""> <br>
<br>
<div class="ToggleTriggerAnchor bbCodeSpoilerContainer">
<button type="button" class="button bbCodeSpoilerButton ToggleTrigger Tooltip JsOnly" data-target="> .SpoilerTarget"><span>Spoiler: <span class="SpoilerTitle">MediaInfo</span></span></button>
<div class="SpoilerTarget bbCodeSpoilerText"><b>General</b><br>
Complete name : Rosalía &amp; Rauw Alejandro Vampiros MASTER ProResHQ 1080p PCM2.0.mov<br>
Format : MPEG-4<br>
Format profile : QuickTime<br>
Codec ID : qt 2005.03 (qt )<br>
File size : 4.38 GiB<br>
Duration : 3 min 32 s<br>
Overall bit rate mode : Variable<br>
Overall bit rate : 177 Mb/s<br>
Frame rate : 24.000 FPS<br>
Encoded date : 2023-03-31 09:13:12 UTC<br>
Tagged date : 2023-03-31 09:23:45 UTC<br>
Writing library : Apple QuickTime<br>
TIM : 00:00:00:00<br>
TSC : 24<br>
TSZ : 1<br>
<br>
<b>Video</b><br>
ID : 1<br>
Format : ProRes<br>
Format version : Version 0<br>
Format profile : 422 HQ<br>
Codec ID : apch<br>
Duration : 3 min 32 s<br>
Bit rate mode : Variable<br>
Bit rate : 175 Mb/s<br>
Width : 1 920 pixels<br>
Height : 1 080 pixels<br>
Display aspect ratio : 16:9<br>
Frame rate mode : Constant<br>
Frame rate : 24.000 FPS<br>
Color space : YUV<br>
Chroma subsampling : 4:2:2<br>
Scan type : Progressive<br>
Bits/(Pixel*Frame) : 3.515<br>
Stream size : 4.34 GiB (99%)<br>
Writing library : Apple<br>
Language : English<br>
Encoded date : 2023-03-31 09:13:12 UTC<br>
Tagged date : 2023-03-31 09:13:12 UTC<br>
Color primaries : BT.709<br>
Transfer characteristics : BT.709<br>
Matrix coefficients : BT.709<br>
<br>
<b>Audio</b><br>
ID : 2<br>
Format : PCM<br>
Format settings : Little / Signed<br>
Codec ID : sowt<br>
Duration : 3 min 32 s<br>
Bit rate mode : Constant<br>
Bit rate : 1 536 kb/s<br>
Channel(s) : 2 channels<br>
Channel layout : L R<br>
Sampling rate : 48.0 kHz<br>
Bit depth : 16 bits<br>
Stream size : 39.0 MiB (1%)<br>
Language : English<br>
Encoded date : 2023-03-31 09:13:12 UTC<br>
Tagged date : 2023-03-31 09:13:12 UTC<br>
<br>
<b>Other</b><br>
ID : 3<br>
Type : Time code<br>
Format : QuickTime TC<br>
Duration : 3 min 32 s<br>
Frame rate : 24.000 FPS<br>
Time code of first frame : 00:00:00:00<br>
Time code of last frame : 00:03:32:21<br>
Time code, stripped : Yes<br>
Language : English<br>
Encoded date : 2023-03-31 09:13:12 UTC<br>
Tagged date : 2023-03-31 09:13:12 UTC</div>
</div><br>
<div class="bbCodeBlock bbCodeVfcHH HiddenContent">
<div class="attribution type">Hidden Content:</div>
<blockquote>You must reply before you can see the hidden data contained here.</blockquote>
</div></div>
<div class="messageTextEndMarker">&nbsp;</div>
</blockquote>
</article>]]></description>
                <author><![CDATA[fstambuk]]></author>
                </item>

                </channel></rss>